<svg xmlns="http://www.w3.org/2000/svg" xmlns:xlink="http://www.w3.org/1999/xlink" width="500" zoomAndPan="magnify" viewBox="0 0 375 374.999991" height="500" preserveAspectRatio="xMidYMid meet" version="1.0"><defs><g/></defs><g fill="#1f3c38" fill-opacity="1"><g transform="translate(18.750003, 217.967139)"><g><path d="M 57.75 -30.421875 C 57.75 -10.140625 47.503906 0 27.015625 0 L 7.171875 0 L 7.171875 -60.21875 L 27.015625 -60.21875 C 47.503906 -60.21875 57.75 -50.285156 57.75 -30.421875 Z M 46.296875 -30.421875 C 46.296875 -33.460938 45.992188 -36.1875 45.390625 -38.59375 C 44.796875 -41 43.757812 -43.035156 42.28125 -44.703125 C 40.800781 -46.367188 38.816406 -47.644531 36.328125 -48.53125 C 33.847656 -49.414062 30.71875 -49.859375 26.9375 -49.859375 L 18.40625 -49.859375 L 18.40625 -10.359375 L 26.9375 -10.359375 C 30.6875 -10.359375 33.800781 -10.8125 36.28125 -11.71875 C 38.769531 -12.632812 40.753906 -13.953125 42.234375 -15.671875 C 43.722656 -17.390625 44.769531 -19.488281 45.375 -21.96875 C 45.988281 -24.457031 46.296875 -27.273438 46.296875 -30.421875 Z M 46.296875 -30.421875 "/></g></g></g><g fill="#1f3c38" fill-opacity="1"><g transform="translate(81.304726, 217.967139)"><g><path d="M 25.03125 0.953125 C 21.851562 0.953125 18.945312 0.441406 16.3125 -0.578125 C 13.6875 -1.597656 11.425781 -3.078125 9.53125 -5.015625 C 7.644531 -6.960938 6.1875 -9.347656 5.15625 -12.171875 C 4.125 -15.003906 3.609375 -18.21875 3.609375 -21.8125 C 3.609375 -25.332031 4.109375 -28.5 5.109375 -31.3125 C 6.117188 -34.132812 7.53125 -36.519531 9.34375 -38.46875 C 11.15625 -40.425781 13.320312 -41.929688 15.84375 -42.984375 C 18.375 -44.046875 21.171875 -44.578125 24.234375 -44.578125 C 27.410156 -44.578125 30.265625 -44.0625 32.796875 -43.03125 C 35.335938 -42 37.503906 -40.507812 39.296875 -38.5625 C 41.097656 -36.625 42.484375 -34.238281 43.453125 -31.40625 C 44.421875 -28.582031 44.90625 -25.382812 44.90625 -21.8125 L 44.90625 -18.359375 L 14.921875 -18.359375 C 15.179688 -16.640625 15.613281 -15.144531 16.21875 -13.875 C 16.832031 -12.613281 17.570312 -11.554688 18.4375 -10.703125 C 19.3125 -9.859375 20.3125 -9.222656 21.4375 -8.796875 C 22.5625 -8.378906 23.757812 -8.171875 25.03125 -8.171875 C 25.976562 -8.171875 26.925781 -8.328125 27.875 -8.640625 C 28.832031 -8.960938 29.691406 -9.429688 30.453125 -10.046875 C 31.222656 -10.671875 31.851562 -11.429688 32.34375 -12.328125 C 32.832031 -13.234375 33.09375 -14.28125 33.125 -15.46875 L 44.46875 -15.46875 C 44.070312 -12.820312 43.300781 -10.476562 42.15625 -8.4375 C 41.019531 -6.40625 39.597656 -4.695312 37.890625 -3.3125 C 36.191406 -1.925781 34.242188 -0.867188 32.046875 -0.140625 C 29.847656 0.585938 27.507812 0.953125 25.03125 0.953125 Z M 33.3125 -27.453125 C 32.625 -30.148438 31.492188 -32.15625 29.921875 -33.46875 C 28.347656 -34.789062 26.453125 -35.453125 24.234375 -35.453125 C 22.085938 -35.453125 20.207031 -34.789062 18.59375 -33.46875 C 16.988281 -32.15625 15.84375 -30.148438 15.15625 -27.453125 Z M 33.3125 -27.453125 "/></g></g></g><g fill="#1f3c38" fill-opacity="1"><g transform="translate(129.896698, 217.967139)"><g><path d="M 22.21875 0.953125 C 10.125 0.953125 3.707031 -4.519531 2.96875 -15.46875 L 13.96875 -15.46875 C 14.019531 -10.601562 16.742188 -8.171875 22.140625 -8.171875 C 24.484375 -8.171875 26.269531 -8.601562 27.5 -9.46875 C 28.738281 -10.34375 29.359375 -11.441406 29.359375 -12.765625 C 29.359375 -13.378906 29.222656 -13.882812 28.953125 -14.28125 C 28.691406 -14.675781 28.191406 -15.050781 27.453125 -15.40625 C 26.710938 -15.769531 25.671875 -16.140625 24.328125 -16.515625 C 22.992188 -16.898438 21.257812 -17.359375 19.125 -17.890625 C 16.5 -18.523438 14.25 -19.164062 12.375 -19.8125 C 10.5 -20.457031 8.945312 -21.265625 7.71875 -22.234375 C 6.488281 -23.203125 5.582031 -24.390625 5 -25.796875 C 4.414062 -27.210938 4.125 -29.019531 4.125 -31.21875 C 4.125 -33.125 4.519531 -34.890625 5.3125 -36.515625 C 6.101562 -38.140625 7.226562 -39.546875 8.6875 -40.734375 C 10.144531 -41.921875 11.90625 -42.859375 13.96875 -43.546875 C 16.03125 -44.234375 18.328125 -44.578125 20.859375 -44.578125 C 32.578125 -44.578125 38.554688 -39.660156 38.796875 -29.828125 L 28.203125 -29.828125 C 27.941406 -33.578125 25.664062 -35.453125 21.375 -35.453125 C 20.445312 -35.453125 19.582031 -35.375 18.78125 -35.21875 C 17.976562 -35.0625 17.285156 -34.832031 16.703125 -34.53125 C 16.117188 -34.226562 15.660156 -33.859375 15.328125 -33.421875 C 14.992188 -32.984375 14.828125 -32.472656 14.828125 -31.890625 C 14.828125 -31.410156 14.910156 -31.007812 15.078125 -30.6875 C 15.253906 -30.375 15.664062 -30.066406 16.3125 -29.765625 C 16.96875 -29.460938 17.929688 -29.128906 19.203125 -28.765625 C 20.472656 -28.410156 22.203125 -27.972656 24.390625 -27.453125 C 27.066406 -26.765625 29.390625 -26.078125 31.359375 -25.390625 C 33.328125 -24.703125 34.957031 -23.847656 36.25 -22.828125 C 37.550781 -21.804688 38.515625 -20.554688 39.140625 -19.078125 C 39.773438 -17.597656 40.09375 -15.734375 40.09375 -13.484375 C 40.09375 -11.421875 39.671875 -9.507812 38.828125 -7.75 C 37.984375 -5.988281 36.785156 -4.46875 35.234375 -3.1875 C 33.691406 -1.90625 31.816406 -0.894531 29.609375 -0.15625 C 27.398438 0.582031 24.9375 0.953125 22.21875 0.953125 Z M 22.21875 0.953125 "/></g></g></g><g fill="#1f3c38" fill-opacity="1"><g transform="translate(173.768297, 217.967139)"><g><path d="M 24.953125 -0.359375 C 23.597656 -0.015625 22.351562 0.226562 21.21875 0.375 C 20.082031 0.519531 19.015625 0.59375 18.015625 0.59375 C 15.472656 0.59375 13.453125 0.296875 11.953125 -0.296875 C 10.460938 -0.890625 9.328125 -1.773438 8.546875 -2.953125 C 7.765625 -4.128906 7.253906 -5.597656 7.015625 -7.359375 C 6.773438 -9.117188 6.65625 -11.160156 6.65625 -13.484375 L 6.65625 -34.515625 L 1.75 -34.515625 L 1.75 -43.546875 L 6.65625 -43.546875 L 6.65625 -53.546875 L 17.5 -53.546875 L 17.5 -43.546875 L 24 -43.546875 L 24 -34.515625 L 17.5 -34.515625 L 17.5 -13.171875 C 17.5 -12.160156 17.539062 -11.351562 17.625 -10.75 C 17.71875 -10.144531 17.847656 -9.675781 18.015625 -9.34375 C 18.191406 -9.007812 18.410156 -8.789062 18.671875 -8.6875 C 18.941406 -8.582031 19.238281 -8.53125 19.5625 -8.53125 C 20.21875 -8.53125 21 -8.582031 21.90625 -8.6875 C 22.820312 -8.789062 23.835938 -8.9375 24.953125 -9.125 Z M 24.953125 -0.359375 "/></g></g></g><g fill="#1f3c38" fill-opacity="1"><g transform="translate(198.956794, 217.967139)"><g><path d="M 16.34375 0 L 5.625 0 L 5.625 -43.546875 L 16.34375 -43.546875 Z M 16.34375 -47.640625 L 5.625 -47.640625 L 5.625 -58.859375 L 16.34375 -58.859375 Z M 16.34375 -47.640625 "/></g></g></g><g fill="#1f3c38" fill-opacity="1"><g transform="translate(219.900921, 217.967139)"><g><path d="M 16.9375 -40.96875 C 20.03125 -43.375 23.398438 -44.578125 27.046875 -44.578125 C 37.335938 -44.578125 42.484375 -39.039062 42.484375 -27.96875 L 42.484375 0 L 31.65625 0 L 31.65625 -27.640625 C 31.65625 -30.316406 31.21875 -32.234375 30.34375 -33.390625 C 29.46875 -34.554688 28.023438 -35.140625 26.015625 -35.140625 C 23.109375 -35.140625 20.082031 -33.382812 16.9375 -29.875 L 16.9375 0 L 6.1875 0 L 6.1875 -43.546875 L 16.9375 -43.546875 Z M 16.9375 -40.96875 "/></g></g></g><g fill="#ff7b45" fill-opacity="1"><g transform="translate(268.509303, 217.967139)"><g><path d="M 18.796875 0 L 7.609375 0 L 7.609375 -60.21875 L 18.796875 -60.21875 Z M 18.796875 0 "/></g></g></g><g fill="#ff7b45" fill-opacity="1"><g transform="translate(293.697801, 217.967139)"><g><path d="M 57.75 -30.421875 C 57.75 -10.140625 47.503906 0 27.015625 0 L 7.171875 0 L 7.171875 -60.21875 L 27.015625 -60.21875 C 47.503906 -60.21875 57.75 -50.285156 57.75 -30.421875 Z M 46.296875 -30.421875 C 46.296875 -33.460938 45.992188 -36.1875 45.390625 -38.59375 C 44.796875 -41 43.757812 -43.035156 42.28125 -44.703125 C 40.800781 -46.367188 38.816406 -47.644531 36.328125 -48.53125 C 33.847656 -49.414062 30.71875 -49.859375 26.9375 -49.859375 L 18.40625 -49.859375 L 18.40625 -10.359375 L 26.9375 -10.359375 C 30.6875 -10.359375 33.800781 -10.8125 36.28125 -11.71875 C 38.769531 -12.632812 40.753906 -13.953125 42.234375 -15.671875 C 43.722656 -17.390625 44.769531 -19.488281 45.375 -21.96875 C 45.988281 -24.457031 46.296875 -27.273438 46.296875 -30.421875 Z M 46.296875 -30.421875 "/></g></g></g></svg>